<svg id="Capa_1" enable-background="new 0 0 512 512" height="512" viewBox="0 0 512 512" width="512" xmlns="http://www.w3.org/2000/svg"><g><path d="m138.477 307.167h-2.59c-58.478 0-105.883 47.405-105.883 105.883v98.947h46.358l56.233-26.853 61.162 26.853h50.603v-98.947c0-58.478-47.406-105.883-105.883-105.883z" fill="#9cc6fa"/><path d="m171.406 312.401c-42.361 13.836-72.968 53.673-72.968 100.649v98.949h-68.434v-98.949c0-58.473 47.409-105.882 105.882-105.882h2.596c11.496 0 22.561 1.833 32.924 5.233z" fill="#7fb4fb"/><path d="m193.757 512h-90.532v-26.857h63.665c14.834 0 26.867 12.022 26.867 26.857z" fill="#7a8a93"/><g><path d="m222.673 36.892c0 20.385-16.53 36.904-36.904 36.904h-84.052c-10.187 0-19.413-4.133-26.08-10.812-6.679-6.668-10.812-15.905-10.812-26.092 0-1.783.127-3.531.37-5.244 2.547-17.896 17.931-31.648 36.522-31.648h84.052c10.187 0 19.413 4.133 26.092 10.8 5.51 5.51 9.295 12.768 10.441 20.86.244 1.713.371 3.449.371 5.232z" fill="#e28086"/><path d="m126.021 62.99c6.679 6.679 15.905 10.812 26.092 10.812h-50.401c-10.187 0-19.413-4.133-26.092-10.812-6.668-6.668-10.8-15.905-10.8-26.092 0-20.374 16.519-36.892 36.892-36.892h50.401c-20.373 0-36.904 16.519-36.904 36.892.001 10.186 4.133 19.424 10.812 26.092z" fill="#dd636e"/><path d="m222.673 36.892c0 20.385-16.53 36.904-36.904 36.904h-84.052c-10.187 0-19.413-4.133-26.08-10.812-6.679-6.668-10.812-15.905-10.812-26.092 0-1.783.127-3.531.37-5.244 8.45-2.558 17.41-3.936 26.682-3.936h103.731c9.284 0 18.255 1.378 26.694 3.947.244 1.714.371 3.45.371 5.233z" fill="#dd636e"/><path d="m195.605 47.004h-103.722c-50.746 0-91.883 41.137-91.883 91.883v19.349c0 50.745 41.137 91.883 91.883 91.883h103.722c50.745 0 91.883-41.137 91.883-91.883v-19.349c0-50.746-41.137-91.883-91.883-91.883z" fill="#e28086"/><path d="m167.12 250.119h-75.243c-50.737 0-91.877-41.129-91.877-91.877v-19.355c0-50.737 41.14-91.878 91.877-91.878h75.243c-50.737 0-91.877 41.14-91.877 91.877v19.355c0 50.749 41.14 91.878 91.877 91.878z" fill="#dd636e"/><path d="m245.138 244.085h-201.341c-16.168 0-29.274-13.107-29.274-29.274 0-16.168 13.107-29.274 29.274-29.274h201.341c16.168 0 29.274 13.107 29.274 29.274.001 16.167-13.106 29.274-29.274 29.274z" fill="#eaac9d"/><path d="m59.714 167.681v86.755c0 47.022 38.297 85.102 85.4 84.751 46.73-.349 84.107-39.084 84.107-85.815v-85.691-.217h-3.982c-36.212 0-68.528-22.728-80.772-56.808-12.243 34.08-44.559 56.808-80.772 56.808h-3.982z" fill="#ffddce"/><path d="m169.453 335.375c-7.698 2.419-15.87 3.751-24.344 3.808-47.102.359-85.395-37.726-85.395-84.747v-86.969h3.982c16.762 0 32.702-4.873 46.188-13.497v100.467c0 38.038 25.062 70.218 59.569 80.938z" fill="#ffcbbe"/><path d="m154.769 279.325c-10.792 0-21.585-4.108-29.802-12.324-3.017-3.017-3.017-7.909 0-10.927 3.018-3.017 7.909-3.017 10.928 0 10.406 10.408 27.343 10.406 37.75 0 3.018-3.017 7.909-3.017 10.928 0 3.017 3.017 3.017 7.909 0 10.927-8.219 8.216-19.012 12.324-29.804 12.324z" fill="#e28086"/><g fill="#687780"><path d="m132.654 226.289c-4.268 0-7.726-3.459-7.726-7.726v-17.121c0-4.267 3.459-7.726 7.726-7.726s7.726 3.459 7.726 7.726v17.121c0 4.266-3.458 7.726-7.726 7.726z"/><path d="m176.884 226.289c-4.268 0-7.726-3.459-7.726-7.726v-17.121c0-4.267 3.459-7.726 7.726-7.726s7.726 3.459 7.726 7.726v17.121c.001 4.266-3.458 7.726-7.726 7.726z"/></g></g><path d="m159.451 512h-56.227v-26.857h29.37c14.835 0 26.857 12.022 26.857 26.857z" fill="#687780"/><path d="m471.799 446.192h-230.743c-22.202 0-40.201-17.999-40.201-40.201v-150.925c0-22.202 17.999-40.201 40.201-40.201h230.743c22.202 0 40.201 17.999 40.201 40.201v150.925c0 22.203-17.999 40.201-40.201 40.201z" fill="#7a8a93"/><path d="m271.443 446.196h-30.39c-22.2 0-40.198-17.997-40.198-40.198v-150.932c0-22.2 17.997-40.197 40.198-40.197h30.39c-22.2 0-40.198 17.997-40.198 40.197v150.932c.001 22.2 17.998 40.198 40.198 40.198z" fill="#687780"/><path d="m375.067 321.653h-37.28c-14.609 0-26.452 11.843-26.452 26.452v149.019h90.184v-149.018c.001-14.61-11.842-26.453-26.452-26.453z" fill="#7a8a93"/><path d="m364.761 321.651c-14.618 0-26.455 11.847-26.455 26.455v149.016h-26.97v-149.016c0-14.608 11.847-26.455 26.455-26.455z" fill="#687780"/><path d="m425.525 480.346h-138.194c-8.741 0-15.827 7.086-15.827 15.827 0 8.741 7.086 15.827 15.827 15.827h138.194c8.741 0 15.827-7.086 15.827-15.827-.001-8.741-7.087-15.827-15.827-15.827z" fill="#7a8a93"/><path d="m321.231 507.36c2.864 2.864 6.82 4.636 11.188 4.636h-45.091c-4.368 0-8.324-1.772-11.188-4.636s-4.636-6.82-4.636-11.188c0-8.746 7.088-15.834 15.823-15.834h45.091c-8.736 0-15.823 7.088-15.823 15.834 0 4.369 1.772 8.325 4.636 11.188z" fill="#687780"/><g fill="#687780"><g><path d="m481.706 391.326h-49.993c-4.268 0-7.726-3.459-7.726-7.726s3.459-7.726 7.726-7.726h49.993c4.268 0 7.726 3.459 7.726 7.726.001 4.267-3.458 7.726-7.726 7.726z"/><path d="m481.706 417.112h-49.993c-4.268 0-7.726-3.459-7.726-7.726s3.459-7.726 7.726-7.726h49.993c4.268 0 7.726 3.459 7.726 7.726.001 4.267-3.458 7.726-7.726 7.726z"/><path d="m481.706 365.54h-49.993c-4.268 0-7.726-3.459-7.726-7.726s3.459-7.726 7.726-7.726h49.993c4.268 0 7.726 3.459 7.726 7.726.001 4.267-3.458 7.726-7.726 7.726z"/></g><g><path d="m281.143 391.326h-49.994c-4.268 0-7.726-3.459-7.726-7.726s3.459-7.726 7.726-7.726h49.994c4.268 0 7.726 3.459 7.726 7.726s-3.459 7.726-7.726 7.726z"/><path d="m281.143 417.112h-49.994c-4.268 0-7.726-3.459-7.726-7.726s3.459-7.726 7.726-7.726h49.994c4.268 0 7.726 3.459 7.726 7.726s-3.459 7.726-7.726 7.726z"/><path d="m281.143 365.54h-49.994c-4.268 0-7.726-3.459-7.726-7.726s3.459-7.726 7.726-7.726h49.994c4.268 0 7.726 3.459 7.726 7.726s-3.459 7.726-7.726 7.726z"/></g></g><path d="m76.362 505.924v6.076h26.858c14.833 0 26.858-12.025 26.858-26.858h40.287c7.417 0 13.429-6.012 13.429-13.429 0-7.417-6.012-13.429-13.429-13.429h-46.363c-26.311 0-47.64 21.329-47.64 47.64z" fill="#ffddce"/><path d="m150.494 458.286c-26.311 0-47.646 21.325-47.646 47.636v6.078h-26.486v-6.078c0-26.311 21.325-47.636 47.636-47.636z" fill="#ffcbbe"/></g></svg>